<?xml version="1.0" encoding="utf-8"?>
<!-- Generator: Adobe Illustrator 22.1.0, SVG Export Plug-In . SVG Version: 6.00 Build 0)  -->
<svg version="1.1" id="Capa_1" xmlns="http://www.w3.org/2000/svg" xmlns:xlink="http://www.w3.org/1999/xlink" x="0px" y="0px"
	 viewBox="0 0 278 722.2" style="enable-background:new 0 0 278 722.2;" xml:space="preserve">
<style type="text/css">
	.st0{fill:#4A596A;}
</style>
<g>
	<circle class="st0" cx="139.4" cy="138.5" r="138.5"/>
	<path class="st0" d="M138.5,306.5c-0.3,0-0.5,0-0.8,0c-6.3,0-12.5,0.5-18.5,1.3C51.8,317.3,0,375.1,0,445
		c0,67.1,47.7,123,110.9,135.8c8.6,1.7,17.5,2.7,26.7,2.7c-0.3,0-0.6,0-0.9,0c-9.4,0-18.7-0.9-27.6-2.7
		c-24.1,55.5-61.4,104-108,141.4c120.3-25.8,218.8-110.1,264.4-221.6c1.5-3.5,3-7.1,4.2-10.8c4.8-14,7.4-29.1,7.4-44.7
		C277,368.5,215,306.5,138.5,306.5z"/>
</g>
</svg>
