<?xml version="1.0" encoding="utf-8"?>
<!-- Generator: Adobe Illustrator 22.1.0, SVG Export Plug-In . SVG Version: 6.00 Build 0)  -->
<svg version="1.1" id="Capa_1" xmlns="http://www.w3.org/2000/svg" xmlns:xlink="http://www.w3.org/1999/xlink" x="0px" y="0px"
	 viewBox="0 0 400 400" style="enable-background:new 0 0 400 400;" xml:space="preserve">
<style type="text/css">
	.st0{fill:#4A596A;}
	.st1{fill:url(#SVGID_1_);}
	.st2{fill:url(#SVGID_2_);}
	.st3{fill:url(#SVGID_3_);}
</style>
<g>
	<circle class="st0" cx="200.2" cy="83.8" r="73.3"/>
	<path class="st0" d="M199.8,169.4c-0.1,0-0.3,0-0.4,0c-3.3,0-6.6,0.3-9.8,0.7c-35.7,5-63.1,35.6-63.1,72.6
		c0,35.5,25.2,65.1,58.7,71.9c4.6,0.9,9.3,1.4,14.1,1.4c-0.2,0-0.3,0-0.5,0c-5,0-9.9-0.5-14.6-1.5c-12.8,29.4-32.5,55.1-57.2,74.9
		c63.7-13.6,115.8-58.3,140-117.3c0.8-1.9,1.6-3.8,2.2-5.7c2.5-7.4,3.9-15.4,3.9-23.7C273.1,202.2,240.3,169.4,199.8,169.4z"/>
</g>
<g>
	<g>
		<linearGradient id="SVGID_1_" gradientUnits="userSpaceOnUse" x1="200.0682" y1="11.2578" x2="200.0683" y2="11.2578">
			<stop  offset="0" style="stop-color:#5F8FDF"/>
			<stop  offset="0.52" style="stop-color:#506789"/>
			<stop  offset="1" style="stop-color:#4A596A"/>
		</linearGradient>
		<polygon class="st1" points="200.1,11.3 200.1,11.3 200.1,11.3 		"/>
		<linearGradient id="SVGID_2_" gradientUnits="userSpaceOnUse" x1="153.9481" y1="84.4012" x2="250.0575" y2="84.4012">
			<stop  offset="0" style="stop-color:#5F8FDF"/>
			<stop  offset="0.52" style="stop-color:#506789"/>
			<stop  offset="1" style="stop-color:#4A596A"/>
		</linearGradient>
		<path class="st2" d="M250.1,138V30.4c-10.5-9.7-23.8-16.4-38.5-18.7c-3.8-0.3-7.6-0.5-11.5-0.5c-3.6,0-7.2,0.1-10.7,0.4
			c-13.2,2-25.3,7.5-35.2,15.5c0.1,18.9-0.1,67.6-0.2,113.9c12.6,10.3,28.7,16.5,46.3,16.5C219.5,157.5,237,150.1,250.1,138z"/>
	</g>
	<linearGradient id="SVGID_3_" gradientUnits="userSpaceOnUse" x1="153.9425" y1="244.2553" x2="250.0575" y2="244.2553">
		<stop  offset="0" style="stop-color:#5F8FDF"/>
		<stop  offset="0.52" style="stop-color:#506789"/>
		<stop  offset="1" style="stop-color:#4A596A"/>
	</linearGradient>
	<path class="st3" d="M199.7,169.8c-0.1,0-0.3,0-0.4,0c-3.3,0-6.6,0.3-9.8,0.7c-13.3,1.9-25.5,7.3-35.6,15.4
		c0,44.9,0.1,92.9,0.1,114.6c8.9,7.1,19.5,12.2,31.1,14.6c4.6,0.9,9.3,1.4,14.1,1.4c-0.2,0-0.3,0-0.5,0c-5,0-9.9-0.5-14.6-1.5
		c-0.4,0.9-0.8,1.8-1.2,2.8c5.6,0.6,11.3,1,17.1,1c15.8,0,31.1-2.5,45.4-7c1.6-2.3,3.2-4.5,4.7-6.9V189.8
		C236.9,177.4,219.2,169.8,199.7,169.8z"/>
</g>
</svg>
